<?xml version="1.0" encoding="UTF-8"?>
<!DOCTYPE svg PUBLIC "-//W3C//DTD SVG 1.1//EN" "http://www.w3.org/Graphics/SVG/1.1/DTD/svg11.dtd">
<svg xmlns="http://www.w3.org/2000/svg" version="1.1" width="50px" height="50px" style="shape-rendering:geometricPrecision; text-rendering:geometricPrecision; image-rendering:optimizeQuality; fill-rule:evenodd; clip-rule:evenodd" xmlns:xlink="http://www.w3.org/1999/xlink">
<g><path style="opacity:0.946" fill="#060606" d="M 43.5,26.5 C 42.596,25.791 42.2627,24.791 42.5,23.5C 36.8623,24.2197 31.1956,24.553 25.5,24.5C 25.5,22.8333 25.5,21.1667 25.5,19.5C 26.1667,19.8333 26.8333,20.1667 27.5,20.5C 25.8632,22.1237 26.1966,23.1237 28.5,23.5C 30.8034,23.1237 31.1368,22.1237 29.5,20.5C 29.5,20.1667 29.5,19.8333 29.5,19.5C 30.6697,21.2785 32.3364,22.2785 34.5,22.5C 34.1667,20.5 33.8333,18.5 33.5,16.5C 34.7918,18.2549 35.7918,20.2549 36.5,22.5C 36.8333,22.3333 37.1667,22.1667 37.5,22C 36.9298,19.2445 35.9298,16.7445 34.5,14.5C 34.4431,13.391 34.1098,12.391 33.5,11.5C 33.5,10.8333 33.1667,10.5 32.5,10.5C 27.1667,3.83333 21.8333,3.83333 16.5,10.5C 15.8333,10.5 15.5,10.8333 15.5,11.5C 14.8902,12.391 14.5569,13.391 14.5,14.5C 13.0702,16.7445 12.0702,19.2445 11.5,22C 11.8333,22.1667 12.1667,22.3333 12.5,22.5C 13.2082,20.2549 14.2082,18.2549 15.5,16.5C 15.1667,18.5 14.8333,20.5 14.5,22.5C 16.6636,22.2785 18.3303,21.2785 19.5,19.5C 19.5,19.8333 19.5,20.1667 19.5,20.5C 17.8632,22.1237 18.1966,23.1237 20.5,23.5C 21.51,22.1789 22.51,20.8456 23.5,19.5C 23.5,21.1667 23.5,22.8333 23.5,24.5C 17.7969,24.6252 12.1302,24.2919 6.5,23.5C 6.73731,24.791 6.40397,25.791 5.5,26.5C 5.5,25.1667 5.5,23.8333 5.5,22.5C 7.16667,22.5 8.83333,22.5 10.5,22.5C 10.4027,12.6587 15.0694,6.65866 24.5,4.5C 33.9306,6.65866 38.5973,12.6587 38.5,22.5C 40.1667,22.5 41.8333,22.5 43.5,22.5C 43.5,23.8333 43.5,25.1667 43.5,26.5 Z M 32.5,14.5 C 32.3284,15.4916 32.6618,16.1583 33.5,16.5C 33.8333,18.5 34.1667,20.5 34.5,22.5C 32.3364,22.2785 30.6697,21.2785 29.5,19.5C 29.7678,17.901 29.4345,16.5676 28.5,15.5C 28.5,13.5 27.5,12.5 25.5,12.5C 24.8333,11.1667 24.1667,11.1667 23.5,12.5C 21.5,12.5 20.5,13.5 20.5,15.5C 19.5655,16.5676 19.2322,17.901 19.5,19.5C 18.3303,21.2785 16.6636,22.2785 14.5,22.5C 14.8333,20.5 15.1667,18.5 15.5,16.5C 16.3382,16.1583 16.6716,15.4916 16.5,14.5C 18.6408,12.0323 21.3075,10.3656 24.5,9.5C 27.6925,10.3656 30.3592,12.0323 32.5,14.5 Z M 23.5,12.5 C 24.1667,12.5 24.8333,12.5 25.5,12.5C 26.1667,13.8333 27.1667,14.8333 28.5,15.5C 28.5,16.8333 28.5,18.1667 28.5,19.5C 27.8333,19.5 27.5,19.8333 27.5,20.5C 26.8333,20.1667 26.1667,19.8333 25.5,19.5C 24.1072,17.1168 22.4405,15.7835 20.5,15.5C 21.8333,14.8333 22.8333,13.8333 23.5,12.5 Z M 14.5,14.5 C 14.8333,15.1667 15.1667,15.8333 15.5,16.5C 14.2082,18.2549 13.2082,20.2549 12.5,22.5C 12.1667,22.3333 11.8333,22.1667 11.5,22C 12.0702,19.2445 13.0702,16.7445 14.5,14.5 Z M 34.5,14.5 C 35.9298,16.7445 36.9298,19.2445 37.5,22C 37.1667,22.1667 36.8333,22.3333 36.5,22.5C 35.7918,20.2549 34.7918,18.2549 33.5,16.5C 33.8333,15.8333 34.1667,15.1667 34.5,14.5 Z"/></g>
<g><path style="opacity:0.999" fill="#fefefe" d="M 32.5,10.5 C 32.5,10.8333 32.5,11.1667 32.5,11.5C 32.1667,11.5 31.8333,11.5 31.5,11.5C 31.5,10.8333 31.1667,10.5 30.5,10.5C 26.5,7.83333 22.5,7.83333 18.5,10.5C 17.8333,10.5 17.5,10.8333 17.5,11.5C 17.1667,11.5 16.8333,11.5 16.5,11.5C 16.5,11.1667 16.5,10.8333 16.5,10.5C 21.8333,3.83333 27.1667,3.83333 32.5,10.5 Z"/></g>
<g><path style="opacity:0.885" fill="#010101" d="M 30.5,10.5 C 31.1667,10.5 31.5,10.8333 31.5,11.5C 31.5,12.1667 31.8333,12.5 32.5,12.5C 32.5,13.1667 32.5,13.8333 32.5,14.5C 30.3592,12.0323 27.6925,10.3656 24.5,9.5C 21.3075,10.3656 18.6408,12.0323 16.5,14.5C 16.5,13.5 16.5,12.5 16.5,11.5C 16.8333,11.5 17.1667,11.5 17.5,11.5C 18.1667,11.5 18.5,11.1667 18.5,10.5C 22.5,7.83333 26.5,7.83333 30.5,10.5 Z"/></g>
<g><path style="opacity:1" fill="#bdbdbd" d="M 32.5,11.5 C 32.8333,11.5 33.1667,11.5 33.5,11.5C 34.1098,12.391 34.4431,13.391 34.5,14.5C 34.1667,15.1667 33.8333,15.8333 33.5,16.5C 32.6618,16.1583 32.3284,15.4916 32.5,14.5C 32.5,13.8333 32.5,13.1667 32.5,12.5C 32.5,12.1667 32.5,11.8333 32.5,11.5 Z"/></g>
<g><path style="opacity:1" fill="#bfbfbe" d="M 15.5,11.5 C 15.8333,11.5 16.1667,11.5 16.5,11.5C 16.5,12.5 16.5,13.5 16.5,14.5C 16.6716,15.4916 16.3382,16.1583 15.5,16.5C 15.1667,15.8333 14.8333,15.1667 14.5,14.5C 14.5569,13.391 14.8902,12.391 15.5,11.5 Z"/></g>
<g><path style="opacity:0.718" fill="#040404" d="M 23.5,12.5 C 22.8333,13.8333 21.8333,14.8333 20.5,15.5C 20.5,13.5 21.5,12.5 23.5,12.5 Z"/></g>
<g><path style="opacity:0.715" fill="#030303" d="M 25.5,12.5 C 27.5,12.5 28.5,13.5 28.5,15.5C 27.1667,14.8333 26.1667,13.8333 25.5,12.5 Z"/></g>
<g><path style="opacity:1" fill="#999a9a" d="M 20.5,15.5 C 22.4405,15.7835 24.1072,17.1168 25.5,19.5C 24.8333,19.5 24.1667,19.5 23.5,19.5C 22.51,20.8456 21.51,22.1789 20.5,23.5C 18.1966,23.1237 17.8632,22.1237 19.5,20.5C 20.8333,20.1667 20.8333,19.8333 19.5,19.5C 19.2322,17.901 19.5655,16.5676 20.5,15.5 Z"/></g>
<g><path style="opacity:1" fill="#a9a9a9" d="M 28.5,19.5 C 28.5,20.1667 28.8333,20.5 29.5,20.5C 31.1368,22.1237 30.8034,23.1237 28.5,23.5C 26.1966,23.1237 25.8632,22.1237 27.5,20.5C 27.5,19.8333 27.8333,19.5 28.5,19.5 Z"/></g>
<g><path style="opacity:1" fill="#fbfbfb" d="M 23.5,19.5 C 24.1667,19.5 24.8333,19.5 25.5,19.5C 25.5,21.1667 25.5,22.8333 25.5,24.5C 31.1956,24.553 36.8623,24.2197 42.5,23.5C 42.2627,24.791 42.596,25.791 43.5,26.5C 43.5,27.1667 43.1667,27.5 42.5,27.5C 41.8498,31.5035 40.5165,35.3368 38.5,39C 29.1667,41 19.8333,41 10.5,39C 8.4835,35.3368 7.15017,31.5035 6.5,27.5C 5.83333,27.5 5.5,27.1667 5.5,26.5C 6.40397,25.791 6.73731,24.791 6.5,23.5C 12.1302,24.2919 17.7969,24.6252 23.5,24.5C 23.5,22.8333 23.5,21.1667 23.5,19.5 Z"/></g>
<g><path style="opacity:0.94" fill="#020202" d="M 6.5,27.5 C 7.15017,31.5035 8.4835,35.3368 10.5,39C 19.8333,41 29.1667,41 38.5,39C 40.5165,35.3368 41.8498,31.5035 42.5,27.5C 42.6699,31.6447 42.0033,35.6447 40.5,39.5C 29.8333,43.5 19.1667,43.5 8.5,39.5C 6.99674,35.6447 6.33008,31.6447 6.5,27.5 Z"/></g>
</svg>
