<?xml version="1.0" encoding="UTF-8"?>
<!DOCTYPE svg PUBLIC "-//W3C//DTD SVG 1.1//EN" "http://www.w3.org/Graphics/SVG/1.1/DTD/svg11.dtd">
<svg xmlns="http://www.w3.org/2000/svg" version="1.1" width="50px" height="46px" style="shape-rendering:geometricPrecision; text-rendering:geometricPrecision; image-rendering:optimizeQuality; fill-rule:evenodd; clip-rule:evenodd" xmlns:xlink="http://www.w3.org/1999/xlink">
<g><path style="opacity:1" fill="#b89a7e" d="M 31.5,5.5 C 28.7588,4.80075 26.0921,4.46741 23.5,4.5C 21.9707,4.52884 20.804,5.19551 20,6.5C 18.5315,5.01072 17.0315,3.67739 15.5,2.5C 18.1834,0.719122 21.1834,0.219122 24.5,1C 25.9494,2.11702 27.6161,2.78369 29.5,3C 30.3805,3.7083 31.0472,4.54163 31.5,5.5 Z"/></g>
<g><path style="opacity:1" fill="#8c6e50" d="M 15.5,2.5 C 17.0315,3.67739 18.5315,5.01072 20,6.5C 20.804,5.19551 21.9707,4.52884 23.5,4.5C 26.0921,4.46741 28.7588,4.80075 31.5,5.5C 36.2659,9.81029 37.9325,15.1436 36.5,21.5C 36.0984,18.5234 35.0984,15.8567 33.5,13.5C 31.6182,12.7627 30.9515,11.5961 31.5,10C 26.7676,6.42988 21.7676,6.26322 16.5,9.5C 15.8333,9.5 15.1667,9.5 14.5,9.5C 14.5774,8.25025 15.244,7.41691 16.5,7C 16.5302,5.57073 16.1969,4.07073 15.5,2.5 Z"/></g>
<g><path style="opacity:1" fill="#cba583" d="M 15.5,2.5 C 16.1969,4.07073 16.5302,5.57073 16.5,7C 15.244,7.41691 14.5774,8.25025 14.5,9.5C 14.7373,10.791 14.404,11.791 13.5,12.5C 13.44,11.9569 13.1067,11.6236 12.5,11.5C 10.9522,13.9224 9.28553,13.9224 7.5,11.5C 6.34524,14.4459 6.17858,17.4459 7,20.5C 8.50667,19.4954 9.67334,18.162 10.5,16.5C 11.5223,16.8555 12.189,17.5222 12.5,18.5C 11.5116,19.795 10.5116,21.1283 9.5,22.5C 8.5,22.5 7.5,22.5 6.5,22.5C 2.72521,13.1582 5.72521,6.49157 15.5,2.5 Z"/></g>
<g><path style="opacity:1" fill="#5b4025" d="M 33.5,13.5 C 31.2776,13.822 29.4443,13.1554 28,11.5C 27.1482,12.5707 26.3149,13.5707 25.5,14.5C 25.5,13.5 25.5,12.5 25.5,11.5C 24.1266,11.3433 22.7932,11.51 21.5,12C 19.8156,13.7396 17.9823,14.9063 16,15.5C 15.2174,13.5665 15.7174,12.0665 17.5,11C 16.944,10.6174 16.6107,10.1174 16.5,9.5C 21.7676,6.26322 26.7676,6.42988 31.5,10C 30.9515,11.5961 31.6182,12.7627 33.5,13.5 Z"/></g>
<g><path style="opacity:1" fill="#6a4c2d" d="M 14.5,9.5 C 15.1667,9.5 15.8333,9.5 16.5,9.5C 16.6107,10.1174 16.944,10.6174 17.5,11C 15.7174,12.0665 15.2174,13.5665 16,15.5C 17.9823,14.9063 19.8156,13.7396 21.5,12C 22.7932,11.51 24.1266,11.3433 25.5,11.5C 25.5,12.5 25.5,13.5 25.5,14.5C 25.5858,15.4959 25.2524,16.3292 24.5,17C 20.9704,17.6718 19.6371,19.8384 20.5,23.5C 16.6286,23.815 12.9619,23.4816 9.5,22.5C 10.5116,21.1283 11.5116,19.795 12.5,18.5C 13.2674,17.828 13.9341,16.9947 14.5,16C 13.6634,14.9887 13.33,13.8221 13.5,12.5C 14.404,11.791 14.7373,10.791 14.5,9.5 Z"/></g>
<g><path style="opacity:1" fill="#b18459" d="M 13.5,12.5 C 13.33,13.8221 13.6634,14.9887 14.5,16C 13.9341,16.9947 13.2674,17.828 12.5,18.5C 12.189,17.5222 11.5223,16.8555 10.5,16.5C 9.67334,18.162 8.50667,19.4954 7,20.5C 6.17858,17.4459 6.34524,14.4459 7.5,11.5C 9.28553,13.9224 10.9522,13.9224 12.5,11.5C 13.1067,11.6236 13.44,11.9569 13.5,12.5 Z"/></g>
<g><path style="opacity:1" fill="#f8c03a" d="M 6.5,22.5 C 7.5,22.5 8.5,22.5 9.5,22.5C 12.9619,23.4816 16.6286,23.815 20.5,23.5C 22.0269,23.427 23.0269,24.0937 23.5,25.5C 21.4348,25.953 19.7682,26.953 18.5,28.5C 17.5489,29.9187 17.2155,31.5853 17.5,33.5C 16.5178,34.1408 15.5178,34.8075 14.5,35.5C 10.4221,33.5864 6.75548,31.0864 3.5,28C 4.63939,26.2196 5.63939,24.3863 6.5,22.5 Z"/></g>
<g><path style="opacity:1" fill="#4c3926" d="M 33.5,13.5 C 35.0984,15.8567 36.0984,18.5234 36.5,21.5C 37.045,23.3989 36.3784,25.0655 34.5,26.5C 34.631,25.7611 34.4643,25.0944 34,24.5C 29.9412,28.1385 27.9412,27.1385 28,21.5C 26.9783,22.354 26.1449,23.354 25.5,24.5C 27.2485,26.5828 28.0818,28.9162 28,31.5C 26.6122,29.2976 25.1122,27.2976 23.5,25.5C 23.0269,24.0937 22.0269,23.427 20.5,23.5C 19.6371,19.8384 20.9704,17.6718 24.5,17C 25.2524,16.3292 25.5858,15.4959 25.5,14.5C 26.3149,13.5707 27.1482,12.5707 28,11.5C 29.4443,13.1554 31.2776,13.822 33.5,13.5 Z"/></g>
<g><path style="opacity:1" fill="#e8caa0" d="M 34.5,26.5 C 34.3894,28.6477 35.056,28.981 36.5,27.5C 37.5223,27.8555 38.189,28.5222 38.5,29.5C 34.851,29.9542 31.351,30.9542 28,32.5C 25.1194,30.4761 21.9527,29.1427 18.5,28.5C 19.7682,26.953 21.4348,25.953 23.5,25.5C 25.1122,27.2976 26.6122,29.2976 28,31.5C 28.0818,28.9162 27.2485,26.5828 25.5,24.5C 26.1449,23.354 26.9783,22.354 28,21.5C 27.9412,27.1385 29.9412,28.1385 34,24.5C 34.4643,25.0944 34.631,25.7611 34.5,26.5 Z"/></g>
<g><path style="opacity:1" fill="#458db7" d="M 18.5,28.5 C 21.9527,29.1427 25.1194,30.4761 28,32.5C 31.351,30.9542 34.851,29.9542 38.5,29.5C 39.0431,29.56 39.3764,29.8933 39.5,30.5C 38.189,34.3888 37.5224,38.3888 37.5,42.5C 34.1149,42.8457 30.7816,43.5123 27.5,44.5C 24.3953,42.615 21.0619,41.2816 17.5,40.5C 17.5,38.1667 17.5,35.8333 17.5,33.5C 17.2155,31.5853 17.5489,29.9187 18.5,28.5 Z"/></g>
</svg>
