<?xml version="1.0" encoding="UTF-8"?>
<!DOCTYPE svg PUBLIC "-//W3C//DTD SVG 1.1//EN" "http://www.w3.org/Graphics/SVG/1.1/DTD/svg11.dtd">
<svg xmlns="http://www.w3.org/2000/svg" version="1.1" width="50px" height="49px" style="shape-rendering:geometricPrecision; text-rendering:geometricPrecision; image-rendering:optimizeQuality; fill-rule:evenodd; clip-rule:evenodd" xmlns:xlink="http://www.w3.org/1999/xlink">
<g><path style="opacity:1" fill="#101010" d="M 22.5,1.5 C 35.1948,0.9943 43.3615,6.9943 47,19.5C 48.3944,36.7782 40.3944,46.1116 23,47.5C 9.75148,46.0852 2.25148,38.7518 0.5,25.5C 2.02805,12.9714 9.02805,5.63809 21.5,3.5C 21.8627,2.81654 22.1961,2.14987 22.5,1.5 Z"/></g>
<g><path style="opacity:1" fill="#f5f5f5" d="M 39.5,17.5 C 39.5,18.1667 39.5,18.8333 39.5,19.5C 35.3241,18.8307 33.9907,20.3307 35.5,24C 37.0657,24.765 38.3991,24.5983 39.5,23.5C 40.1667,22.8333 40.8333,22.1667 41.5,21.5C 41.2372,37.1646 33.2372,43.6646 17.5,41C 7.29098,35.3725 4.45765,27.2058 9,16.5C 12.8759,11.7299 17.8759,9.7299 24,10.5C 28.2224,10.5591 32.3891,11.0591 36.5,12C 37.7577,13.7409 38.7577,15.5742 39.5,17.5 Z"/></g>
<g><path style="opacity:1" fill="#141414" d="M 39.5,19.5 C 39.5,20.8333 39.5,22.1667 39.5,23.5C 38.3991,24.5983 37.0657,24.765 35.5,24C 33.9907,20.3307 35.3241,18.8307 39.5,19.5 Z"/></g>
<g><path style="opacity:1" fill="#939393" d="M 39.5,17.5 C 40.3446,18.6715 41.0113,20.0048 41.5,21.5C 40.8333,22.1667 40.1667,22.8333 39.5,23.5C 39.5,22.1667 39.5,20.8333 39.5,19.5C 39.5,18.8333 39.5,18.1667 39.5,17.5 Z"/></g>
<g><path style="opacity:1" fill="#191919" d="M 9.5,22.5 C 13.1378,21.7366 14.6378,23.0699 14,26.5C 9.41546,28.4126 7.91546,27.0793 9.5,22.5 Z"/></g>
<g><path style="opacity:1" fill="#1d1d1d" d="M 15.5,31.5 C 21.1723,31.8672 26.839,32.3672 32.5,33C 32.9574,33.414 33.2907,33.914 33.5,34.5C 27.5276,35.6636 21.5276,35.8303 15.5,35C 14.3157,33.8545 14.3157,32.6879 15.5,31.5 Z"/></g>
</svg>
